<svg width="22" height="24" fill="none" xmlns="http://www.w3.org/2000/svg"><path d="M20.282 8.585h-.576V5.804c0-.017-.003-.035-.005-.052a.462.462 0 00-.112-.305L14.962.16l-.004-.003a.464.464 0 00-.094-.079l-.03-.018a.494.494 0 00-.093-.04l-.025-.008A.467.467 0 0014.607 0H3.235a.942.942 0 00-.94.941v7.643h-.577c-.743 0-1.345.603-1.345 1.346v6.995c0 .742.602 1.345 1.345 1.345h.576v4.789c0 .519.422.941.941.941h15.53a.942.942 0 00.94-.941V18.27h.577c.743 0 1.345-.602 1.345-1.345V9.93c0-.743-.602-1.345-1.345-1.345zM3.235.94h10.902v4.815c0 .26.21.471.47.471h4.158v2.358H3.235V.94zm9.535 12.832c-.925-.322-1.528-.833-1.528-1.643 0-.95.792-1.676 2.106-1.676.627 0 1.09.132 1.42.28l-.28 1.016a2.648 2.648 0 00-1.165-.264c-.545 0-.81.247-.81.537 0 .355.315.512 1.033.784.982.364 1.445.875 1.445 1.66 0 .933-.718 1.726-2.246 1.726-.636 0-1.264-.165-1.577-.339l.255-1.04c.339.173.86.347 1.396.347.579 0 .884-.24.884-.603 0-.347-.264-.545-.933-.784zm-2.13 1.28v1.058H7.163v-5.567h1.264v4.51h2.213zM3.125 16.11H1.688l1.61-2.817-1.552-2.75H3.19l.487 1.016c.165.338.29.61.421.925h.017c.132-.355.24-.603.38-.925l.47-1.016h1.437l-1.57 2.716 1.653 2.85H5.032l-.504-1.008c-.206-.387-.338-.676-.495-.998h-.016c-.116.322-.256.61-.43.998l-.462 1.009zm15.64 6.693H3.235V18.27h15.53v4.534zm.008-6.693l-.504-1.008c-.206-.388-.338-.677-.495-1h-.016c-.116.323-.257.612-.43 1l-.462 1.008h-1.438l1.61-2.817-1.552-2.75h1.445l.488 1.016c.165.338.289.61.421.925h.017c.131-.355.239-.603.38-.925l.47-1.016h1.437l-1.57 2.716 1.652 2.85h-1.453z" fill="#219653"/></svg>