<svg width="44" height="44" fill="none" xmlns="http://www.w3.org/2000/svg"><g clip-path="url(#clip0)" fill="#2B2831"><path d="M36.944 7.385a20.39 20.39 0 01-3.916-.889.638.638 0 00-.406 1.21c1.33.446 2.73.764 4.162.945 2.147.272 3.68 2.254 3.416 4.418-.346 2.838-.98 7.073-2.032 11.137-1.147 4.426-2.493 7.505-4 9.153-3.097 3.383-6.978 6.382-9.69 8.301a4.126 4.126 0 01-4.762 0c-2.711-1.92-6.593-4.918-9.689-8.301-1.507-1.648-2.854-4.727-4-9.153-1.053-4.064-1.686-8.3-2.032-11.137C3.73 10.905 5.263 8.923 7.41 8.65c6.19-.783 10.293-3.893 12.646-6.364a2.792 2.792 0 012.04-.874c.78 0 1.505.31 2.041.874a20.932 20.932 0 005.821 4.315.638.638 0 00.57-1.142 19.671 19.671 0 01-5.467-4.053 4.056 4.056 0 00-2.965-1.27 4.054 4.054 0 00-2.965 1.27 19.612 19.612 0 01-11.88 5.979c-2.843.36-4.872 2.979-4.523 5.838.594 4.874 2.403 16.676 6.358 20.998 3.172 3.466 7.13 6.525 9.892 8.48a5.39 5.39 0 003.12.992c1.092 0 2.185-.33 3.118-.991 2.762-1.956 6.72-5.015 9.893-8.481 3.955-4.322 5.763-16.124 6.358-20.998.348-2.86-1.68-5.478-4.523-5.838z"/><path d="M20.658 6.13a23.804 23.804 0 01-11.2 5.434A2.466 2.466 0 007.49 14.32c.298 2.183.906 6.267 1.635 9.082 1.33 5.133 2.615 7.087 3.263 7.795 2.13 2.328 6.083 5.438 8.25 7.084.43.327.944.49 1.46.49a2.41 2.41 0 001.46-.49c2.166-1.646 6.118-4.756 8.248-7.084.648-.708 1.934-2.662 3.263-7.795.73-2.816 1.338-6.899 1.636-9.082a2.466 2.466 0 00-1.97-2.757A23.804 23.804 0 0123.538 6.13a2.212 2.212 0 00-2.88 0zm14.782 8.018c-.293 2.156-.893 6.183-1.606 8.935-1.344 5.189-2.612 6.864-2.969 7.254-2.14 2.338-6.363 5.624-8.08 6.929a1.14 1.14 0 01-1.376 0c-1.716-1.305-5.94-4.592-8.08-6.93-.356-.39-1.625-2.064-2.969-7.253-.712-2.752-1.312-6.779-1.605-8.935a1.19 1.19 0 01.946-1.332c4.426-.855 8.393-2.78 11.792-5.72a.921.921 0 01.604-.224c.216 0 .433.074.605.224 3.398 2.94 7.366 4.865 11.792 5.72a1.19 1.19 0 01.946 1.332z"/><path d="M18.559 20.049c-.48-.39-2.1-1.198-3.26.335-1.159 1.532-.144 2.868.335 3.259l1.85 1.505a.638.638 0 10.806-.99l-1.85-1.505c-.215-.175-.686-.747-.15-1.464.535-.717 1.248-.326 1.463-.15l3.832 3.117c.252.206.62.188.851-.042l5.607-5.554a1.042 1.042 0 011.464 1.479l-6.677 6.615c-.529.51-1.111.298-1.39.068l-1.06-.862a.639.639 0 00-.805.99l1.06.862c.412.335.931.52 1.462.52.615 0 1.194-.239 1.631-.671l6.677-6.615a2.32 2.32 0 00.016-3.277 2.32 2.32 0 00-3.277-.015l-5.199 5.15-3.386-2.755z"/></g><defs><clipPath id="clip0"><path fill="#fff" transform="translate(.222 .222)" d="M0 0h43.556v43.556H0z"/></clipPath></defs></svg>