<svg width="44" height="44" fill="none" xmlns="http://www.w3.org/2000/svg"><g clip-path="url(#clip0)" fill="#2B2831"><path d="M31.437 18.37c-6.815 0-12.34 5.526-12.34 12.341 0 6.816 5.525 12.34 12.34 12.34 6.815 0 12.34-5.524 12.34-12.34-.007-6.812-5.528-12.333-12.34-12.34zm0 23.23c-6.014 0-10.889-4.875-10.889-10.889 0-6.014 4.875-10.889 10.89-10.889 6.013 0 10.888 4.875 10.888 10.89-.007 6.01-4.878 10.881-10.889 10.888z"/><path d="M32.163 28.667v-4.49H30.71v4.49a2.176 2.176 0 00-1.318 1.318h-3.038v1.452h3.038a2.173 2.173 0 102.77-2.77zm-.726 2.77a.726.726 0 110-1.452.726.726 0 010 1.452zM22 29.985h1.452v1.452H22v-1.452zm8.711 8.711h1.452v1.452H30.71v-1.452zm8.711-8.711h1.452v1.452h-1.452v-1.452zm-8.711-8.711h1.452v1.452H30.71v-1.452z"/><path d="M1.674 32.163V11.11h33.393v6.533h1.452V7.481a3.634 3.634 0 00-3.63-3.63h-5.082v-.725a2.178 2.178 0 00-4.355 0v.726H13.289v-.726a2.178 2.178 0 00-4.356 0v.726H3.852a3.634 3.634 0 00-3.63 3.63v24.68a3.634 3.634 0 003.63 3.63H18.37v-1.451H3.852a2.178 2.178 0 01-2.178-2.178zm23.23-29.037a.726.726 0 011.451 0v2.903a.726.726 0 01-1.451 0V3.126zm-14.519 0a.726.726 0 011.452 0v2.903a.726.726 0 01-1.452 0V3.126zM3.852 5.304h5.081v.725a2.178 2.178 0 004.356 0v-.725h10.163v.725a2.178 2.178 0 004.355 0v-.725h5.082c1.203 0 2.178.975 2.178 2.177V9.66H1.674V7.481c0-1.202.975-2.177 2.178-2.177z"/><path d="M10.385 16.918c0-.801-.65-1.451-1.452-1.451H6.03c-.802 0-1.452.65-1.452 1.451v2.904c0 .802.65 1.452 1.452 1.452h2.903c.802 0 1.452-.65 1.452-1.452v-2.904zM6.03 19.822v-2.904h2.903v2.904H6.03zm11.614-2.904c0-.801-.65-1.451-1.451-1.451h-2.904c-.802 0-1.452.65-1.452 1.451v2.904c0 .802.65 1.452 1.452 1.452h2.904c.801 0 1.451-.65 1.451-1.452v-2.904zm-4.355 2.904v-2.904h2.904v2.904h-2.904zm11.615-.726v-2.178c0-.801-.65-1.451-1.452-1.451h-2.904c-.802 0-1.452.65-1.452 1.451v2.904c0 .802.65 1.452 1.452 1.452H22v-1.452h-1.452v-2.904h2.904v2.178h1.452zM8.933 24.178H6.03c-.802 0-1.452.65-1.452 1.452v2.903c0 .802.65 1.452 1.452 1.452h2.903c.802 0 1.452-.65 1.452-1.452V25.63c0-.802-.65-1.452-1.452-1.452zM6.03 28.533V25.63h2.903v2.903H6.03zm10.163-4.355h-2.904c-.802 0-1.452.65-1.452 1.452v2.903c0 .802.65 1.452 1.452 1.452h2.904c.801 0 1.451-.65 1.451-1.452V25.63c0-.802-.65-1.452-1.451-1.452zm-2.904 4.355V25.63h2.904v2.903h-2.904zm18.874-10.889v-.726c0-.801-.65-1.451-1.452-1.451h-2.904c-.801 0-1.451.65-1.451 1.451v.726h1.451v-.726h2.904v.726h1.452z"/></g><defs><clipPath id="clip0"><path fill="#fff" transform="translate(.222 .222)" d="M0 0h43.556v43.556H0z"/></clipPath></defs></svg>