<svg width="65" height="64" fill="none" xmlns="http://www.w3.org/2000/svg"><path d="M26.721 3.68a7.467 7.467 0 0110.56 0l23.041 23.04a7.467 7.467 0 010 10.56l-23.04 23.04a7.467 7.467 0 01-10.56 0L3.68 37.282a7.467 7.467 0 010-10.56L26.721 3.68z" fill="#fff"/><path d="M61.438 25.812L38.185 2.56c-3.412-3.412-8.963-3.412-12.376 0L10.495 17.874a1.25 1.25 0 101.768 1.768L27.577 4.327a6.258 6.258 0 018.84 0L59.67 27.58A6.21 6.21 0 0161.501 32c0 1.67-.65 3.24-1.83 4.42L36.416 59.673a6.257 6.257 0 01-8.84 0L4.324 36.42c-2.429-2.43-2.435-6.389-.013-8.826a1.25 1.25 0 10-1.773-1.762c-3.391 3.412-3.383 8.954.019 12.356L25.81 61.44A8.723 8.723 0 0031.997 64a8.724 8.724 0 006.188-2.56l23.253-23.252A8.694 8.694 0 0064.001 32c0-2.338-.91-4.535-2.563-6.188z" fill="#2B2831"/><path d="M6.72 23.763a1.261 1.261 0 001.428-.028c.414-.3.604-.841.472-1.334a1.26 1.26 0 00-1.14-.925 1.26 1.26 0 00-1.228.788c-.213.538-.02 1.18.467 1.499z" fill="#2B2831"/><rect x="32.091" y="8.614" width="33.201" height="33.201" rx="5" transform="rotate(45 32.091 8.614)" fill="#FFB71B" stroke="#2B2831" stroke-width="2"/></svg>