<svg width="46" height="37" fill="none" xmlns="http://www.w3.org/2000/svg"><path fill-rule="evenodd" clip-rule="evenodd" d="M9.128 28.408a3.735 3.735 0 01-2.645-1.1 3.734 3.734 0 01-1.1-2.645v-9.86c0-1.802.73-3.435 1.912-4.616a6.509 6.509 0 014.617-1.912c1.803 0 3.435.73 4.616 1.912a6.508 6.508 0 011.913 4.617 6.51 6.51 0 01-1.913 4.617 6.508 6.508 0 01-5.46 1.857 6.522 6.522 0 01-.828-.162l-.303-.08v-4.714l.633.426a2.314 2.314 0 001.308.398 2.339 2.339 0 002.343-2.343 2.337 2.337 0 00-2.343-2.343 2.34 2.34 0 00-2.344 2.343v13.605h-.406zm-2.071-1.674a2.93 2.93 0 001.665.834V14.804c0-.87.354-1.659.924-2.23l.002-.001a3.148 3.148 0 014.46 0l.001.001c.571.571.924 1.36.924 2.23 0 .87-.353 1.658-.924 2.23h-.002a3.144 3.144 0 01-3.358.715v2.654a5.716 5.716 0 006.88-5.6c0-1.579-.64-3.008-1.675-4.042a5.7 5.7 0 00-4.043-1.675 5.7 5.7 0 00-4.042 1.675 5.7 5.7 0 00-1.675 4.042v9.86c0 .806.33 1.54.863 2.071zm26.476-13.06h11.245v4.248h-2.783v4.597H35.91v-4.597h-2.782v-4.248h.405zm10.433.812H33.938v2.624h2.783v4.597h4.463V17.11h2.782v-2.624zM38.346 5.9a40.058 40.058 0 00-6.708-2.873c-2.78-.893-5.97-1.548-9.34-1.548-5.664 0-11.087 1.477-14.894 4.638-3.283 2.726-5.37 6.72-5.37 12.119 0 5.436 1.978 9.415 5.16 12.107 3.644 3.083 8.876 4.5 14.544 4.5 3.787 0 7.24-.739 10.118-1.694a36.794 36.794 0 006.49-2.876v-5.874c-1.271.714-2.973 1.543-4.893 2.15-1.613.508-3.381.86-5.185.86-4.5 0-7.333-2.346-8.577-5.358a9.826 9.826 0 01-.726-3.73 10.059 10.059 0 01.709-3.734c1.22-3.045 3.988-5.431 8.219-5.449 2.149-.008 4.266.414 6.17 1.004a30.663 30.663 0 014.283 1.71V5.9zm-6.46-3.644c-2.855-.917-6.128-1.59-9.588-1.59-5.839 0-11.448 1.538-15.411 4.829-3.464 2.876-5.665 7.076-5.665 12.74 0 5.7 2.088 9.884 5.449 12.726 3.8 3.215 9.218 4.694 15.067 4.694 3.878 0 7.418-.76 10.371-1.739a37.543 37.543 0 006.844-3.06l.205-.118v-7.752l-.613.364c-1.266.753-3.151 1.737-5.333 2.424-1.541.486-3.229.823-4.944.823-4.119 0-6.702-2.125-7.829-4.854a9.009 9.009 0 01-.666-3.422 9.25 9.25 0 01.652-3.434c1.106-2.76 3.622-4.925 7.471-4.94 2.055-.009 4.091.399 5.928.968a30.296 30.296 0 014.744 1.95l.59.301V5.42l-.213-.115a40.929 40.929 0 00-7.06-3.05z" fill="#2B2831" stroke="#2B2831"/></svg>