<svg width="44" height="44" fill="none" xmlns="http://www.w3.org/2000/svg"><g clip-path="url(#clip0)" fill="#2B2831"><path d="M33.597 19.454c0-1.379-1.122-2.5-2.5-2.5H26.5c1.116-1.256 1.846-2.685 1.987-3.967a2.757 2.757 0 00-.664-2.133 2.397 2.397 0 00-1.788-.82h-.024c-.666 0-1.291.256-1.763.724a2.47 2.47 0 00-.736 1.755c-.025.146-.28.647-.907 1.243a7.103 7.103 0 01-2.708 1.584c-.512.166-.981.473-1.393.911-.216.23-.54.547-.94.866a1.4 1.4 0 00-.657-.164h-4.365a1.41 1.41 0 00-1.41 1.41v11.639c0 .777.633 1.41 1.41 1.41h4.365c.53 0 .992-.295 1.232-.728h11.138a2.14 2.14 0 001.84-3.223 2.138 2.138 0 00.727-2.91 2.137 2.137 0 00.653-3.027 2.5 2.5 0 001.1-2.07zm-2.5 1.136h-.364a.682.682 0 000 1.364.774.774 0 010 1.546h-.728a.682.682 0 000 1.364.774.774 0 010 1.546h-.727a.682.682 0 000 1.364.774.774 0 010 1.546h-10.96v-6.592a.682.682 0 00-1.365 0v7.274c0 .025-.02.046-.045.046h-4.365a.045.045 0 01-.045-.046v-11.64c0-.024.02-.045.045-.045h4.365c.025 0 .045.02.045.046v1.455a.682.682 0 001.364 0v-1.455c0-.033-.002-.066-.005-.098.512-.396.92-.796 1.187-1.08.253-.27.529-.453.82-.548 1.606-.521 2.686-1.36 3.31-1.973.781-.767 1.247-1.567 1.247-2.14 0-.302.118-.585.333-.798.217-.215.504-.328.814-.329.383.004.636.2.781.363.249.28.372.684.328 1.078-.149 1.355-1.232 3.03-2.76 4.267a.682.682 0 00.428 1.212h6.296a1.138 1.138 0 010 2.273z"/><path d="M14.726 27.13a.688.688 0 00-.686.686c0 .376.309.685.686.685a.688.688 0 00.685-.685.688.688 0 00-.685-.686z"/><path d="M42.562 22l1.171-3.1a.682.682 0 00-.105-.667l-2.073-2.587.157-3.31a.682.682 0 00-.307-.602l-2.77-1.82-.875-3.197a.682.682 0 00-.477-.478l-3.197-.874-1.82-2.77a.683.683 0 00-.602-.307l-3.31.157L25.767.372A.682.682 0 0025.1.267L22 1.438 18.9.267a.682.682 0 00-.668.106l-2.586 2.072-3.311-.156a.68.68 0 00-.602.306l-1.82 2.77-3.196.875a.682.682 0 00-.478.478l-.874 3.196-2.77 1.82a.682.682 0 00-.307.602l.156 3.31-2.072 2.587a.682.682 0 00-.106.667L1.437 22 .266 25.1a.682.682 0 00.106.668l2.072 2.587-.156 3.31c-.012.24.105.47.306.602l2.77 1.82.875 3.196a.682.682 0 00.478.478l3.196.875 1.82 2.77a.684.684 0 00.602.306l3.31-.156 2.587 2.072a.681.681 0 00.667.106l3.1-1.172 3.1 1.172a.683.683 0 00.668-.106l2.587-2.072 3.31.156a.681.681 0 00.602-.306l1.82-2.77 3.197-.875a.682.682 0 00.477-.478l.875-3.196 2.77-1.82a.682.682 0 00.307-.602l-.157-3.31 2.073-2.587a.682.682 0 00.105-.668L42.562 22zm-1.367.241l1.125 2.978-1.99 2.484a.682.682 0 00-.15.458l.15 3.18-2.66 1.747a.682.682 0 00-.283.39l-.84 3.07-3.07.84a.683.683 0 00-.39.283l-1.747 2.66-3.18-.15a.682.682 0 00-.458.15l-2.484 1.99-2.977-1.125a.681.681 0 00-.482 0L18.78 42.32l-2.484-1.99a.683.683 0 00-.458-.15l-3.18.15-1.747-2.66a.682.682 0 00-.39-.283l-3.07-.84-.84-3.07a.683.683 0 00-.283-.39l-2.66-1.747.15-3.18a.681.681 0 00-.15-.458l-1.99-2.484 1.126-2.978a.682.682 0 000-.482l-1.126-2.977 1.99-2.484a.682.682 0 00.15-.458l-.15-3.18 2.66-1.747a.682.682 0 00.283-.39l.84-3.07 3.07-.84a.682.682 0 00.39-.284l1.747-2.66 3.18.15a.682.682 0 00.458-.149l2.484-1.99 2.978 1.125a.682.682 0 00.482 0l2.977-1.125 2.484 1.99c.13.104.293.157.458.15l3.18-.15 1.747 2.66c.091.138.23.24.39.283l3.07.84.84 3.07c.044.16.145.299.284.39l2.66 1.747-.15 3.18a.681.681 0 00.149.458l1.99 2.484-1.125 2.977a.683.683 0 000 .482z"/><path d="M34.814 10.224a17.87 17.87 0 00-1.07-1.07.682.682 0 00-.922 1.005 16.508 16.508 0 01.987.987.68.68 0 00.964.041.682.682 0 00.041-.963zm-3.491-2.93a17.478 17.478 0 00-11.15-2.623A17.452 17.452 0 009.666 9.678 17.361 17.361 0 004.58 21.282a17.356 17.356 0 004.062 11.906.68.68 0 00.96.083.682.682 0 00.084-.961 15.995 15.995 0 01-3.743-10.973 16 16 0 014.687-10.694 16.083 16.083 0 019.685-4.615A16.106 16.106 0 0130.59 8.444a.682.682 0 10.733-1.15zm5.352 5.352a.682.682 0 00-1.15.733 16.108 16.108 0 012.416 10.275 16.084 16.084 0 01-4.614 9.685 16.001 16.001 0 01-10.695 4.688 15.993 15.993 0 01-10.973-3.743.682.682 0 10-.878 1.044 17.347 17.347 0 0011.906 4.062 17.361 17.361 0 0011.604-5.086 17.45 17.45 0 005.007-10.509c.404-3.9-.527-7.86-2.623-11.149z"/></g><defs><clipPath id="clip0"><path fill="#fff" transform="translate(.222 .222)" d="M0 0h43.556v43.556H0z"/></clipPath></defs></svg>