<svg width="44" height="44" fill="none" xmlns="http://www.w3.org/2000/svg"><g clip-path="url(#clip0)" fill="#2B2831"><path d="M29.828 13.42a.851.851 0 10.852.851.85.85 0 00-.852-.85zM14.341 28.877a.851.851 0 10-.002 1.702.851.851 0 00.002-1.702z"/><path d="M42.845 5.456a.853.853 0 00-.798.229L38.513 9.24H36.82l-1.866-1.93V5.597l3.483-3.528a.85.85 0 00-.334-1.403A8.517 8.517 0 0035.38.222a8.434 8.434 0 00-6.92 3.545c-1.518 2.109-1.985 4.693-1.315 7.166L20.867 17.2 10.407 6.736V4.682a.85.85 0 00-.414-.729L3.967.343a.853.853 0 00-1.042.128L.515 2.877a.85.85 0 00-.128 1.04L4.002 9.93a.853.853 0 00.731.414H6.79L17.25 20.81l-6.255 6.242c-2.478-.669-5.068-.201-7.182 1.315a8.405 8.405 0 00-3.55 6.904c0 .93.15 1.843.445 2.716a.851.851 0 001.413.328l3.533-3.554h1.703L9.3 36.697v1.7l-3.561 3.526a.85.85 0 00.328 1.41c.875.295 1.79.444 2.722.444a8.432 8.432 0 006.918-3.543c1.518-2.11 1.987-4.695 1.317-7.168l5.023-5.014 1.15 1.248-.527.526a.85.85 0 000 1.204.854.854 0 001.205 0l.479-.478L35.15 42.257a5.12 5.12 0 007.258.025 5.105 5.105 0 00-.027-7.244L30.634 24.283l.473-.472a.85.85 0 000-1.203.854.854 0 00-1.206 0l-.524.524-1.252-1.147 5.047-5.038a8.556 8.556 0 002.209.289c4.7 0 8.523-3.816 8.523-8.507 0-.93-.15-1.843-.445-2.716a.851.851 0 00-.614-.557zM7.747 8.894a.844.844 0 00-.603-.242H5.216L2.191 3.61l1.47-1.467 5.041 3.02v1.924c0 .226.09.442.25.601l10.71 10.714-1.206 1.203L7.746 8.894zm21.68 16.594l11.786 10.79a3.404 3.404 0 01-.012 4.801 3.414 3.414 0 01-4.81.012L25.559 29.348l3.869-3.86zm-1.256-1.152l-3.768 3.76-1.15-1.248 3.665-3.659 1.253 1.147zm7.21-8.802a6.832 6.832 0 01-2.179-.354.855.855 0 00-.875.205l-16.87 16.838a.85.85 0 00-.206.873c.709 2.1.37 4.34-.93 6.146a6.745 6.745 0 01-5.533 2.833 7.01 7.01 0 01-.743-.04l2.707-2.68a.85.85 0 00.252-.604v-2.407a.85.85 0 00-.25-.601l-2.44-2.436a.853.853 0 00-.603-.249H5.3a.854.854 0 00-.605.252l-2.686 2.702a6.87 6.87 0 01-.04-.742 6.722 6.722 0 012.84-5.523 6.76 6.76 0 016.157-.928.853.853 0 00.875-.205l16.87-16.838a.85.85 0 00.206-.873 6.722 6.722 0 01.928-6.143 6.746 6.746 0 015.535-2.836c.257 0 .513.014.766.042L33.495 4.65a.85.85 0 00-.245.597v2.407c0 .22.085.432.239.59l2.355 2.436c.16.166.382.26.613.26h2.411a.85.85 0 00.605-.252l2.686-2.702c.027.246.04.493.04.742 0 3.753-3.059 6.805-6.818 6.805z"/><path d="M26.815 16.075L16.149 26.721a.85.85 0 000 1.203.854.854 0 001.205 0L28.02 17.278a.85.85 0 000-1.203.854.854 0 00-1.205 0zm10.771 22.599a.854.854 0 001.205-.002.85.85 0 00-.002-1.203l-7.683-7.643a.854.854 0 00-1.205.002.85.85 0 00.002 1.202l7.683 7.644z"/></g><defs><clipPath id="clip0"><path fill="#fff" transform="translate(.222 .222)" d="M0 0h43.556v43.556H0z"/></clipPath></defs></svg>