<svg width="44" height="44" fill="none" xmlns="http://www.w3.org/2000/svg"><g clip-path="url(#clip0)"><path d="M3.73 22.904a.638.638 0 00.622-.784c-.06-.256-.184-.789-.009-1.018.125-.163.457-.262.934-.279 1.896-.067 2.478-.943 3.04-1.79.301-.454.613-.923 1.18-1.363.559-.433.798-.44.837-.439.035.038.284.357.192 1.764-.048.737.094 1.28.436 1.657.477.527 1.173.551 1.732.57.251.009.489.017.66.065.544.151 1.02.103 1.402.065.236-.024.48-.048.532.008.255.279.546.413.865.406.602-.016 1.01-.514 1.628-1.266.056-.07.115-.14.176-.215a.47.47 0 01.07-.072c.089.02.285.139.417.22.472.286 1.185.72 2.073.339.977-.419 1.23-.73 1.709-1.392a14.8 14.8 0 01.717-.929c.578-.69 1.414-.89 1.76-.73.054.025.22.102.141.563-.112.658.015 1.153.377 1.472.628.551 1.608.25 2.323.031.163-.05.348-.107.43-.12.061-.005.247.04.371.071.619.153 1.906.47 2.545-1.355.43-1.232.746-1.278 1.683-1.416l.31-.046c2.078-.333 2.466-1.694 2.778-2.787.088-.31.172-.604.288-.872.19-.439.541-.664.985-.948.571-.366 1.281-.822 1.58-1.839.144-.488.555-.768.776-.84-.007.125-.048.347-.185.682-.48 1.178-.578 1.828-.352 2.32.208.45.623.588.871.67a1.1 1.1 0 01.23.091l.011.012a.638.638 0 10.953-.848 1.325 1.325 0 00-.233-.21 2.088 2.088 0 00-.56-.257 3.771 3.771 0 01-.11-.038c.001-.126.049-.465.372-1.259.373-.915.372-1.607-.003-2.058-.277-.333-.715-.467-1.2-.366-.679.14-1.512.783-1.794 1.74-.165.561-.534.798-1.045 1.125-.526.338-1.122.72-1.467 1.516-.15.345-.248.693-.344 1.029-.288 1.007-.478 1.672-1.753 1.877l-.293.044c-1.037.152-2.017.296-2.703 2.257-.255.73-.436.685-1.034.537-.277-.068-.563-.139-.865-.093-.177.026-.381.089-.617.161-.24.074-.852.261-1.085.225a1.04 1.04 0 01.018-.294c.152-.89-.17-1.614-.864-1.935-.96-.445-2.398.024-3.273 1.068a16.06 16.06 0 00-.774 1.002c-.39.54-.483.668-1.177.966-.258.11-.464.012-.907-.257-.438-.267-1.349-.82-2.134.13l-.179.218c-.217.264-.476.58-.64.732-.472-.446-1.053-.387-1.525-.34-.319.032-.62.062-.932-.025-.318-.088-.644-.1-.96-.11-.335-.012-.714-.025-.83-.152-.043-.048-.14-.214-.107-.717.068-1.043.053-2.486-.869-2.976-.886-.471-1.887.304-2.216.56-.733.567-1.137 1.176-1.461 1.665-.504.759-.781 1.177-2.021 1.22-.892.032-1.532.294-1.904.78-.541.708-.324 1.638-.22 2.084a.638.638 0 00.622.493zm38.782-3.995c-.18-.222-.355-.423-.526-.617-.773-.88-1.004-1.211-.78-1.76a3.42 3.42 0 00.134-.398.638.638 0 00-1.232-.335 2.205 2.205 0 01-.083.25c-.541 1.327.244 2.22 1.002 3.085.162.184.33.375.492.577.562.695.935 1.831.984 2.373-1.32-.343-2.056-.956-2.192-1.822l-.035-.23c-.155-1.023-.316-2.08-1.213-2.304-.563-.14-1.29.046-1.766.455-.42.359-.623.86-.573 1.411.016.172.039.352.063.543.086.665.215 1.67-.157 1.925-.918.628-1.016 1.605-1.12 2.64a23.16 23.16 0 01-.079.694c-.09.683.155 1.045.376 1.229.559.463 1.36.198 2.003-.015.143-.047.278-.092.378-.117.231-.058.557.35 1.025 1.286a7.4 7.4 0 00.423.715c.442.684.792 1.224.399 3.068-.171.804-.42 1.067-.5 1.11-.06-.04-.171-.222-.104-.44.283-.92.276-1.634-.02-2.123a1.25 1.25 0 00-.87-.59c-.38-.068-.618-.016-.881.194-.067.053-.243.194-1.135.346-1 .171-1.194.012-1.661-.371-.213-.174-.478-.391-.844-.603-.622-.358-1.073-.261-1.342-.117-.788.424-.899 1.63-1.015 3.564-.016.272-.075.462-.164.534-.203.164-.85.066-1.37-.013-.616-.094-1.315-.2-1.954-.055-.868.199-1.495-.027-1.999-.209-.3-.108-.558-.2-.834-.2-.667 0-.851.647-.93.923-.027.097-.077.271-.119.327-.031.005-.148.013-.403-.077-1.29-.453-2.062.03-2.573.35-.275.173-.439.27-.614.27-.575 0-1.95-.145-2.316-1.497-.367-1.356-1.423-1.459-1.99-1.514a5.323 5.323 0 01-.2-.022c-.228-1.328-1.61-1.393-3.342-1.473-1.144-.054-1.671.255-1.82 1.064-.005.027-.011.063-.017.087a.684.684 0 01-.142.049c-.805.2-1.632-.817-1.732-1.125-.17-.526-.763-1.353-2.82-.985-1.145.204-1.22 1.324-1.26 1.925a5.418 5.418 0 01-.024.298c-.775.067-1.134.878-1.376 1.459-.171-.586-.514-1.373-1.558-1.95-.27-.149-.594-.394-.61-.718a.61.61 0 01.134-.4c.47.012 1.861-.03 2.44-.909.244-.368.425-1.005-.095-1.948a2.266 2.266 0 01-.267-1.483.638.638 0 00-1.262-.19 3.545 3.545 0 00.412 2.288c.16.292.216.527.148.63-.18.272-1.026.372-1.408.334-.598-.06-1.113.523-1.293 1.101-.11.352-.349 1.565 1.184 2.412.76.42.892.947 1.021 1.457.102.405.257 1.018.913 1.149.817.163 1.167-.678 1.399-1.234.09-.218.255-.612.371-.723a.975.975 0 00.71-.224c.372-.317.405-.82.435-1.265.041-.623.096-.733.21-.753.925-.165 1.338-.013 1.382.121.282.875 1.689 2.362 3.256 1.97.938-.234 1.05-.848 1.104-1.143l.001-.004c.08-.014.233-.028.505-.016.808.038 1.508.079 1.886.2.246.08.252.137.266.277.089.893.924.975 1.325 1.014.53.051.75.092.882.577.612 2.265 2.87 2.44 3.548 2.44.55 0 .962-.257 1.293-.465.458-.287.76-.477 1.471-.227.574.201 1.037.204 1.418.007.471-.245.637-.71.73-1.029l.129.046c.59.213 1.483.534 2.716.252.402-.091.949-.008 1.477.072.848.13 1.723.262 2.364-.256.383-.309.597-.797.636-1.45.045-.75.126-2.103.33-2.474a.793.793 0 01.115.057c.276.16.478.324.672.484.672.55 1.221.892 2.686.642.95-.162 1.347-.346 1.594-.516.04.105.07.426-.123 1.056-.184.598-.03 1.262.392 1.69.349.354.826.487 1.277.355.467-.136 1.09-.607 1.403-2.074.503-2.36-.046-3.208-.576-4.027-.127-.197-.248-.382-.353-.593-.427-.855-1.143-2.286-2.476-1.953a7.256 7.256 0 00-.469.144c-.179.059-.508.168-.717.199l.004-.033c.035-.26.06-.502.083-.736.097-.96.161-1.433.572-1.714 1.015-.695.834-2.108.702-3.14a14.328 14.328 0 01-.058-.497.348.348 0 01.132-.326.907.907 0 01.594-.191c.127.172.226.825.293 1.263l.036.234c.16 1.033.894 2.381 3.472 2.942.445.097.846-.063 1.07-.428.592-.958-.363-3.175-1.08-4.063z" fill="#2B2831"/></g><defs><clipPath id="clip0"><path fill="#fff" transform="translate(.222 .222)" d="M0 0h43.556v43.556H0z"/></clipPath></defs></svg>