<svg width="44" height="44" fill="none" xmlns="http://www.w3.org/2000/svg"><g clip-path="url(#clip0)" fill="#2B2831"><path d="M10.385 28.896a4.36 4.36 0 00-4.355 4.356 4.36 4.36 0 004.355 4.355 4.36 4.36 0 004.356-4.355 4.36 4.36 0 00-4.356-4.356zm0 7.26a2.907 2.907 0 01-2.904-2.904 2.907 2.907 0 012.904-2.904 2.907 2.907 0 012.904 2.904 2.907 2.907 0 01-2.904 2.904zm24.682-7.26a4.36 4.36 0 00-4.356 4.356 4.36 4.36 0 004.356 4.355 4.36 4.36 0 004.355-4.355 4.36 4.36 0 00-4.355-4.356zm0 7.26a2.907 2.907 0 01-2.904-2.904 2.907 2.907 0 012.904-2.904 2.907 2.907 0 012.903 2.904 2.907 2.907 0 01-2.903 2.904z"/><path d="M43.662 24.874L37.13 14.71a.726.726 0 00-.61-.333h-7.986a.726.726 0 00-.726.726v18.148c0 .401.325.726.726.726h2.904v-1.452H29.26V15.83h6.863l6.204 9.65v7.046h-3.63v1.452h4.356a.725.725 0 00.726-.726v-7.985a.724.724 0 00-.116-.393z"/><path d="M32.163 23.815v-5.082h5.807v-1.451h-6.533a.726.726 0 00-.726.725v6.534c0 .401.325.726.726.726h10.889v-1.452H32.163zm-3.63-14.519H.948c-.4 0-.726.326-.726.726v23.23c0 .401.325.726.726.726h5.808v-1.452H1.673V10.748h26.133v21.778H14.015v1.452h14.518a.725.725 0 00.726-.726v-23.23c0-.4-.324-.726-.726-.726z"/><path d="M5.304 29.622H.948v1.452h4.356v-1.452zm22.503 0h-12.34v1.452h12.34v-1.452zm15.245 0h-2.904v1.452h2.904v-1.452zM28.533 12.2H3.126v1.452h25.407V12.2zM11.111 32.526H9.66v1.452h1.452v-1.452zm24.682 0H34.34v1.452h1.452v-1.452zM13.289 6.393H3.126v1.451h10.163V6.393zm-11.615 0H.222v1.451h1.452V6.393z"/></g><defs><clipPath id="clip0"><path fill="#fff" transform="translate(.222 .222)" d="M0 0h43.556v43.556H0z"/></clipPath></defs></svg>