<svg width="44" height="44" fill="none" xmlns="http://www.w3.org/2000/svg"><g clip-path="url(#clip0)" fill="#2B2831"><path d="M29.26 24.178a4.36 4.36 0 00-4.356 4.355 4.36 4.36 0 004.355 4.356 4.36 4.36 0 004.356-4.356 4.36 4.36 0 00-4.356-4.355zm0 7.259a2.907 2.907 0 01-2.905-2.904 2.907 2.907 0 012.904-2.903 2.907 2.907 0 012.904 2.903 2.906 2.906 0 01-2.904 2.904z"/><path d="M30.711 31.437v3l-1.05-.7a.722.722 0 00-.805 0l-1.049.7v-3h-1.451v4.356a.725.725 0 001.128.604l1.775-1.184 1.775 1.184a.73.73 0 00.746.036.726.726 0 00.383-.64v-4.356H30.71zM26.355 7.481H16.92v1.452h9.436V7.481zm7.26 4.356h-23.23v1.452h23.23v-1.452zm-7.26 4.356h-15.97v1.451h15.97v-1.451zm7.26 0h-4.356v1.451h4.356v-1.451zm0 4.355h-23.23V22h23.23v-1.452zm-14.519 4.356h-8.71v1.451h8.71v-1.451zm-5.081 3.629h-3.63v1.452h3.63v-1.452zm5.081 0H16.92v1.452h2.177v-1.452zM40.148.222a3.634 3.634 0 00-3.63 3.63v1.452c0 .4.325.726.726.726h5.808a.726.726 0 00.726-.726V3.852a3.634 3.634 0 00-3.63-3.63zm2.178 4.356H37.97v-.726c0-1.2.977-2.178 2.178-2.178 1.2 0 2.178.977 2.178 2.178v.726z"/><path d="M40.148.222H9.659a3.634 3.634 0 00-3.63 3.63v34.844h1.452V3.852c0-1.2.978-2.178 2.178-2.178h27.587a3.61 3.61 0 00-.727 2.178v36.296a2.18 2.18 0 01-2.178 2.178H6.755v1.452h27.586a3.634 3.634 0 003.63-3.63V3.852c0-1.2.976-2.178 2.177-2.178a.726.726 0 100-1.452z"/><path d="M34.34 42.326a2.18 2.18 0 01-2.177-2.178v-1.452a.725.725 0 00-.726-.726H.948c-.4 0-.726.325-.726.726v1.452a3.634 3.634 0 003.63 3.63H34.34a.725.725 0 100-1.452zm-30.488 0a2.18 2.18 0 01-2.178-2.178v-.726h29.037v.726c0 .817.27 1.57.727 2.178H3.852z"/></g><defs><clipPath id="clip0"><path fill="#fff" transform="translate(.222 .222)" d="M0 0h43.556v43.556H0z"/></clipPath></defs></svg>