<svg width="18" height="18" fill="none" xmlns="http://www.w3.org/2000/svg"><path d="M15.125 11.242c-.642-.642-1.454-.642-2.104 0-.49.49-.99.98-1.471 1.478-.128.135-.245.17-.406.076-.321-.177-.659-.311-.963-.505-1.437-.895-2.637-2.052-3.693-3.353-.525-.642-.998-1.334-1.319-2.11-.068-.16-.05-.262.076-.388.5-.474.98-.963 1.462-1.453.676-.684.676-1.478 0-2.162-.38-.388-.768-.767-1.158-1.156-.397-.398-.786-.794-1.191-1.19-.65-.634-1.462-.643-2.113 0-.498.489-.972.987-1.48 1.469-.464.447-.7.988-.751 1.621C-.063 4.6.19 5.57.546 6.525c.735 1.967 1.843 3.707 3.187 5.303 1.817 2.162 3.989 3.877 6.532 5.11 1.141.556 2.334.988 3.618 1.055.88.05 1.656-.169 2.273-.861.423-.474.896-.895 1.344-1.351.668-.668.668-1.478-.008-2.171a275.182 275.182 0 00-2.367-2.368z" fill="#FFB71B"/></svg>