<svg width="119" height="12" fill="none" xmlns="http://www.w3.org/2000/svg"><path d="M9.708 7.916v3.324h-1.8V9.5H1.98v1.74H.18l.012-3.324h.336c.504-.016.86-.384 1.068-1.104.208-.72.336-1.748.384-3.084L2.076 1.1h6.456v6.816h1.176zM3.696 3.908c-.04 1-.124 1.84-.252 2.52-.128.672-.324 1.168-.588 1.488h3.756V2.684h-2.88l-.036 1.224zm10.119 5.688c-.68 0-1.292-.14-1.836-.42a3.22 3.22 0 01-1.26-1.188 3.257 3.257 0 01-.457-1.716c0-.64.152-1.212.457-1.716a3.135 3.135 0 011.26-1.176c.544-.288 1.155-.432 1.836-.432.68 0 1.287.144 1.824.432.535.28.956.672 1.26 1.176.303.504.456 1.076.456 1.716 0 .64-.152 1.212-.457 1.716a3.22 3.22 0 01-1.26 1.188c-.536.28-1.143.42-1.823.42zm0-1.536c.48 0 .872-.16 1.176-.48.312-.328.468-.764.468-1.308s-.156-.976-.468-1.296c-.304-.328-.697-.492-1.176-.492-.48 0-.877.164-1.188.492-.313.32-.469.752-.469 1.296s.157.98.469 1.308c.311.32.707.48 1.188.48zm8.631-5.112c.6 0 1.144.14 1.632.42.496.272.884.66 1.164 1.164.28.496.42 1.076.42 1.74 0 .664-.14 1.248-.42 1.752-.28.496-.668.884-1.164 1.164a3.295 3.295 0 01-1.632.408c-.824 0-1.472-.26-1.944-.78v3.012H18.63V3.044h1.788v.744c.464-.56 1.14-.84 2.028-.84zm-.324 5.112c.48 0 .872-.16 1.176-.48.312-.328.468-.764.468-1.308s-.156-.976-.468-1.296c-.304-.328-.696-.492-1.176-.492s-.876.164-1.188.492c-.304.32-.456.752-.456 1.296s.152.98.456 1.308c.312.32.708.48 1.188.48zm8.968 1.584c-.856 0-1.632-.184-2.328-.552a4.277 4.277 0 01-1.632-1.548c-.392-.664-.588-1.412-.588-2.244 0-.832.196-1.576.588-2.232.4-.664.944-1.18 1.632-1.548.696-.376 1.476-.564 2.34-.564.728 0 1.384.128 1.968.384a3.943 3.943 0 011.488 1.104L33.31 3.596c-.568-.656-1.272-.984-2.112-.984-.52 0-.984.116-1.392.348-.408.224-.728.54-.96.948A2.844 2.844 0 0028.51 5.3c0 .52.112.984.336 1.392.232.408.552.728.96.96.408.224.872.336 1.392.336.84 0 1.544-.332 2.112-.996l1.248 1.152c-.4.488-.896.86-1.488 1.116-.592.256-1.252.384-1.98.384zm9.84-5.064h-2.185V9.5h-1.86V4.58h-2.184V3.044h6.228V4.58zm4.801-1.632c.6 0 1.144.14 1.632.42.496.272.884.66 1.164 1.164.28.496.42 1.076.42 1.74 0 .664-.14 1.248-.42 1.752-.28.496-.668.884-1.164 1.164a3.295 3.295 0 01-1.632.408c-.824 0-1.472-.26-1.944-.78v3.012h-1.872V3.044h1.788v.744c.464-.56 1.14-.84 2.028-.84zm-.324 5.112c.48 0 .872-.16 1.176-.48.312-.328.468-.764.468-1.308s-.156-.976-.468-1.296c-.304-.328-.696-.492-1.176-.492s-.876.164-1.188.492c-.304.32-.456.752-.456 1.296s.152.98.456 1.308c.312.32.708.48 1.188.48zm7.876 1.536c-.68 0-1.292-.14-1.836-.42a3.22 3.22 0 01-1.26-1.188 3.257 3.257 0 01-.456-1.716c0-.64.152-1.212.456-1.716a3.135 3.135 0 011.26-1.176c.544-.288 1.156-.432 1.836-.432.68 0 1.288.144 1.824.432.536.28.956.672 1.26 1.176.304.504.456 1.076.456 1.716 0 .64-.152 1.212-.456 1.716a3.22 3.22 0 01-1.26 1.188c-.536.28-1.144.42-1.824.42zm0-1.536c.48 0 .872-.16 1.176-.48.312-.328.468-.764.468-1.308s-.156-.976-.468-1.296c-.304-.328-.696-.492-1.176-.492s-.876.164-1.188.492c-.312.32-.468.752-.468 1.296s.156.98.468 1.308c.312.32.708.48 1.188.48zm4.827-5.016h1.86v3.84l3.145-3.84h1.716V9.5h-1.86V5.66L59.839 9.5H58.11V3.044zm3.24-.696c-1.407 0-2.115-.62-2.123-1.86h1.224c.008.28.084.5.228.66.152.152.372.228.66.228.288 0 .508-.076.66-.228.16-.16.24-.38.24-.66h1.248c-.008 1.24-.72 1.86-2.136 1.86zM74.418 9.5l-.012-5.028-2.472 4.14h-.864l-2.472-4.044V9.5h-1.824V1.1h1.608l3.144 5.22 3.096-5.22h1.608l.012 8.4h-1.824zm6.791.096c-.68 0-1.292-.14-1.836-.42a3.22 3.22 0 01-1.26-1.188 3.257 3.257 0 01-.456-1.716c0-.64.152-1.212.456-1.716a3.135 3.135 0 011.26-1.176c.544-.288 1.156-.432 1.836-.432.68 0 1.288.144 1.824.432.536.28.956.672 1.26 1.176.304.504.456 1.076.456 1.716 0 .64-.152 1.212-.456 1.716a3.22 3.22 0 01-1.26 1.188c-.536.28-1.144.42-1.824.42zm0-1.536c.48 0 .872-.16 1.176-.48.312-.328.468-.764.468-1.308s-.156-.976-.468-1.296c-.304-.328-.696-.492-1.176-.492s-.876.164-1.188.492c-.312.32-.468.752-.468 1.296s.156.98.468 1.308c.312.32.708.48 1.188.48zm4.828-5.016h1.86v2.52h2.808v-2.52h1.872V9.5h-1.872V7.088h-2.808V9.5h-1.86V3.044zM99.793 4.58h-2.184V9.5h-1.86V4.58h-2.184V3.044h6.228V4.58zm3.505-1.632c1 0 1.768.24 2.304.72.536.472.804 1.188.804 2.148V9.5h-1.752v-.804c-.352.6-1.008.9-1.968.9-.496 0-.928-.084-1.296-.252a1.93 1.93 0 01-.828-.696 1.811 1.811 0 01-.288-1.008c0-.6.224-1.072.672-1.416.456-.344 1.156-.516 2.1-.516h1.488c0-.408-.124-.72-.372-.936-.248-.224-.62-.336-1.116-.336-.344 0-.684.056-1.02.168a2.603 2.603 0 00-.84.432l-.672-1.308c.352-.248.772-.44 1.26-.576a5.737 5.737 0 011.524-.204zm-.144 5.388c.32 0 .604-.072.852-.216.248-.152.424-.372.528-.66V6.8h-1.284c-.768 0-1.152.252-1.152.756 0 .24.092.432.276.576.192.136.452.204.78.204zm11.275-1.284h-.9V9.5h-1.848V7.052h-.9L109.413 9.5h-2.208l2.028-3.336-1.884-3.12h1.98l1.428 2.508h.924V3.044h1.848v2.508h.912l1.44-2.508h1.98l-1.884 3.12 2.04 3.336h-2.22l-1.368-2.448z" fill="#fff"/></svg>