<svg width="261" height="260" fill="none" xmlns="http://www.w3.org/2000/svg"><path fill-rule="evenodd" clip-rule="evenodd" d="M7.125 0A7.125 7.125 0 000 7.125V166.21a7.125 7.125 0 007.125 7.125h36.209V50.46a7.125 7.125 0 017.125-7.125h122.876V7.125A7.125 7.125 0 00166.21 0H7.125zm79.542 252.875V216.67h122.876a7.125 7.125 0 007.125-7.125V86.665h36.209a7.125 7.125 0 017.125 7.125v159.085a7.125 7.125 0 01-7.125 7.125H93.792a7.125 7.125 0 01-7.125-7.125zm86.668-86.665V86.665H93.792a7.125 7.125 0 00-7.125 7.125v79.545h79.543a7.125 7.125 0 007.125-7.125z" fill="#FFB71B"/></svg>